<svg id="logo" class="logo" style="width: 100%; max-width: 305px;" role="img" aria-labelledby="header-logo-desc" width="305" height="57">
    <desc id="header-logo-desc">Escola Superior de Artes e Design - Instituto Politécnico de Leiria </desc>
    <path d="M65.705 12.015c0-.653.1-1.343-.323-1.865-.494-.623-1.413-.5-1.577-.5H61.7v6.78h2.065c.883 0 1.374-.1 1.64-.462.3-.393.3-1.144.3-1.606v-2.36zM69.08 18.6c-.684.853-1.666 1.146-3.764 1.146H61.7v9.635h-4.3V6.248h8.583a5.93 5.93 0 0 1 1.145.099c1.378.298 2.04 1.18 2.26 1.64.492.982.492 2.46.492 3.472v3.045c0 2.16-.1 3.2-.82 4.096m11.663-6.746c0-.132.097-1.18-.26-1.868-.197-.43-.692-1.016-1.77-1.016-.227 0-.852.035-1.38.427-.943.656-.813 1.673-.813 2.62v11.696c0 .7-.037 1.537.4 2.128.495.7 1.54.7 1.735.7s.82-.03 1.344-.393c.8-.558.755-1.473.755-2.324v-11.96zm2.95 16.482c-1.375 1.275-3.246 1.54-5.015 1.54-1.7 0-3.44-.232-4.816-1.345-.7-.556-1.013-1.114-1.148-1.44-.392-.818-.488-1.803-.488-2.655V11.46c0-.492-.1-2.817 1.44-4.194.855-.75 2.46-1.505 5.047-1.505 3.344 0 5.1 1.37 5.8 2.716.357.758.527 1.475.527 3.082v12.874c0 1.474-.23 2.818-1.345 3.9m4.42 1.05V6.25h4.26v19.627h6.253v3.506H88.115m12.283 0h4.225V6.25h-4.225v23.133zm14.478-19.79V29.38h-4.287V9.594h-4.263V6.247h12.847v3.347h-4.297m12.154-5.212h-3l2.097-4.388h5.078l-4.163 4.388zm-6.16 25V6.248h11.206v3.505h-6.945v5.44h6.55v3.502h-6.55v7.116h7.274v3.57H120.87m25.782-2.657c-1.1 3.213-5.408 3.148-5.896 3.148a11.21 11.21 0 0 1-2.198-.232c-1.703-.326-3.207-1.08-3.892-2.752-.33-.848-.33-1.57-.33-2.423v-12.58a15.74 15.74 0 0 1 .065-1.215c.07-1.475.458-2.622 1.64-3.572.952-.752 2.226-1.34 4.784-1.34 1.475 0 3.048.196 4.324 1.045.62.427 1.15 1.018 1.444 1.706.357.753.393 1.2.393 2.62v3.54h-4.198v-2.92c0-1.766-.296-2.72-2.198-2.72-1.635 0-1.958 1.017-1.958 2.527V23.94c0 1.507.322 2.62 2.092 2.62 1.902 0 2.064-1.083 2.064-2.852v-3.013h4.198v3.275c0 .917-.037 1.902-.333 2.75m10.6 2.663L153.17 12.05l.363 17.334h-3.997V6.25h5.47l4.162 16.97-.427-16.97h3.896v23.133h-5.373m8.636 0h4.23V6.25h-4.23v23.133zm19.633-2.66c-1.112 3.213-5.407 3.148-5.9 3.148-.984 0-1.907-.165-2.2-.232-1.698-.326-3.207-1.08-3.894-2.752-.33-.848-.33-1.57-.33-2.423v-12.58a15.62 15.62 0 0 1 .064-1.212c.07-1.477.465-2.624 1.64-3.573.95-.754 2.23-1.342 4.785-1.342 1.47 0 3.044.196 4.322 1.05.623.423 1.147 1.015 1.443 1.702.358.753.393 1.2.393 2.62v3.54h-4.202v-2.92c0-1.766-.3-2.72-2.184-2.72-1.638 0-1.97 1.017-1.97 2.527V23.94c0 1.507.33 2.62 2.094 2.62 1.9 0 2.058-1.083 2.058-2.852v-3.013h4.202v3.275c0 .917-.035 1.902-.33 2.75"></path>
    <path d="M196.737 11.854c0-.132.1-1.18-.263-1.868-.2-.43-.684-1.016-1.765-1.016-.23 0-.854.035-1.376.427-.947.656-.817 1.673-.817 2.62v11.696c0 .7-.033 1.537.4 2.128.496.7 1.542.7 1.74.7s.82-.03 1.344-.393c.787-.558.75-1.473.75-2.324v-11.96zm2.952 16.482c-1.375 1.275-3.244 1.54-5 1.54-1.7 0-3.44-.232-4.82-1.345-.684-.553-1-1.114-1.14-1.44-.393-.818-.492-1.803-.492-2.655V11.46c0-.492-.102-2.817 1.438-4.194.854-.75 2.46-1.505 5.047-1.505 3.34 0 5.112 1.373 5.804 2.716.358.758.517 1.475.517 3.082v12.874c0 1.474-.23 2.818-1.34 3.9M62.878 45.778c0-.46.023-.925-.377-1.264-.358-.295-.82-.253-1.243-.253h-1.075v10.56h.968c.255 0 .53 0 .78-.047.9-.165.95-.82.95-1.56V45.78zm2.728 8.028c-.087 1.582-.805 2.386-1.393 2.72-.76.445-1.546.468-2.364.468h-4.415v-14.9h5.043a3.13 3.13 0 0 1 2.054.741c1.006.866 1.095 1.967 1.095 3.186v6.968l-.02.826"></path>
    <path d="M67.548 56.994V42.086h7.22v2.262h-4.475v3.504h4.224v2.26h-4.224v4.58h4.682v2.3h-7.427m16.886.002v-23.13h4.258V53.5h6.257v3.504H84.434m12.288-.01v-23.13h11.204v3.504h-6.948v5.44h6.555v3.504h-6.555v7.107h7.27v3.573H96.722m13.658.001h4.223v-23.13h-4.223v23.128zm15.956-17.92c0-1.443-.493-1.903-1.97-1.903h-2.227v6.158h2.227c1.476 0 1.97-.52 1.97-2.193v-2.062zm.684 17.922l-3.274-10.255h-1.606v10.255h-4.26v-23.13h8.52c2.816 0 4.16 1.3 4.16 4.126v4.2c0 2.297-.686 3.347-2.72 3.97l3.605 10.845h-4.425m6.552-.002h4.224v-23.13h-4.224v23.128zm13.14-17.266l-1.54 9.925h2.943l-1.402-9.925zm2.424 17.266l-.56-3.767h-3.933l-.62 3.767h-4.263l4.487-23.128h4.888l4.324 23.128h-4.324M18.763 34.454a2.95 2.95 0 0 1 0-5.901c1.627 0 2.948 1.322 2.948 2.956a2.95 2.95 0 0 1-2.948 2.945M25.5 19.92c-6.382 0-11.555 5.184-11.555 11.588 0 6.393 5.172 11.58 11.555 11.58s11.562-5.187 11.562-11.58c0-6.405-5.176-11.588-11.562-11.588"></path>
    <path d="M25.5 48.297c-9.254 0-16.754-7.518-16.754-16.788 0-9.28 7.5-16.797 16.754-16.797S42.248 22.23 42.248 31.5c0 9.27-7.5 16.788-16.757 16.788M.003 56.995h50.98V6.016H.003v50.98m210.64-.056h.577V5.978h-.577v50.96zm10.983-27.648v-9.67h4.26v1.082h-3.054v2.876h2.67v1.096h-2.67V28.2h3.15v1.082h-4.355m9.274-.272c-.602.4-1.274.4-1.507.4-.342 0-1.725-.027-2.178-1.328-.123-.356-.15-.712-.15-1.082v-1.07h1.136v.48c0 .657 0 .958.1 1.274.097.26.384.698 1.082.698.467 0 .918-.205 1.1-.63.1-.232.1-.48.1-.575 0-.82-.37-1.164-.904-1.712l-1.3-1.343c-.754-.78-1.1-1.3-1.1-2.424 0-.137 0-.52.1-.918.192-.63.726-1.33 2.137-1.33.328 0 1.63.013 1.958 1.26.083.328.083.78.083 1.123v.616h-1.068l-.014-.794c0-.438-.07-.863-.52-1.082-.22-.096-.425-.096-.507-.096-.287 0-.534.07-.726.26-.1.096-.164.22-.192.26-.054.123-.095.328-.095.643 0 .083 0 .33.08.562.15.452.562.822.877 1.164l1.52 1.616.3.37c.233.302.534.808.534 1.725 0 1.15-.465 1.643-.877 1.918m6.765-2.093c0 .083 0 .507-.056.836-.178 1.027-.712 1.342-1.136 1.506-.45.164-.93.164-1.068.164-.548 0-1.014-.082-1.466-.424-.095-.083-.287-.247-.452-.493-.37-.562-.412-1.274-.412-2.616v-1.547l.014-1.63c.014-.74.014-1.794.507-2.45.425-.575 1.232-.795 1.903-.795.863 0 1.356.356 1.617.616.37.384.506.877.506 1.945l-.014.63h-1.1l-.014-1.055c-.014-.397-.04-.684-.37-.93-.1-.082-.3-.192-.617-.192-.3 0-.918.07-1.096.85-.123.548-.136 1.725-.136 3.177l.04 2.164c.014.383-.014.904.192 1.26.26.465.835.48.972.48.1 0 .383 0 .643-.205.452-.343.44-1.1.44-1.602v-.713h1.122l-.013 1.027m5.018-4.618c0-.383.014-.986-.192-1.342-.1-.192-.398-.48-.932-.48a1.12 1.12 0 0 0-.712.233c-.465.37-.48 1.014-.48 2.137v.67l.014 2.794c0 .7 0 1.1.095 1.4.097.287.33.712 1.04.712.397 0 .78-.178.944-.56.192-.412.206-1.205.22-2.274l.014-1.288-.014-2.013zm1.2 3.725l-.028.862c-.055.698-.164 1.534-.726 2.027-.314.274-.794.507-1.67.507-.274 0-1.3.04-1.876-.78a1.73 1.73 0 0 1-.288-.616c-.15-.535-.15-1.657-.15-3.055l.028-2.616c.028-1.1.178-1.657.52-2.095.3-.384.863-.795 1.96-.795.287 0 1.48.013 1.986 1.07.137.273.206.56.233.862.083.685.083 2.246.07 2.917l-.055 1.712m1.668 3.26v-9.67h1.232v8.587h2.835v1.082h-4.067m7.185-7.873l-.9 4.97h1.835l-.944-4.97zm1.5 7.874l-.34-1.863h-2.247l-.33 1.863h-1.245l2.082-9.67h1.205l2.137 9.67h-1.26m9.003-.272c-.6.4-1.273.4-1.507.4-.34 0-1.725-.027-2.177-1.328-.123-.356-.15-.712-.15-1.082v-1.07h1.137v.48c0 .657 0 .958.108 1.274.098.26.384.698 1.082.698.467 0 .92-.205 1.1-.63.1-.232.1-.48.1-.575 0-.82-.372-1.164-.904-1.712l-1.3-1.343c-.756-.78-1.1-1.3-1.1-2.424 0-.137 0-.52.108-.918.193-.63.726-1.33 2.137-1.33.33 0 1.63.013 1.96 1.26.083.328.083.78.083 1.123v.616h-1.067l-.015-.794c0-.438-.068-.863-.52-1.082-.22-.096-.424-.096-.507-.096-.286 0-.535.07-.726.26-.1.096-.163.22-.193.26-.053.123-.095.328-.095.643 0 .083 0 .33.083.562.15.452.562.822.876 1.164l1.522 1.616.3.37c.23.302.532.808.532 1.725 0 1.15-.465 1.643-.876 1.918m5.935.112c-.578.316-1.193.3-1.4.3-.6 0-1.316-.123-1.765-.56a1.79 1.79 0 0 1-.397-.657c-.18-.52-.166-1.205-.166-1.33v-7.26h1.218v6.4c0 .822-.025 1.4.1 1.753.138.356.452.493.575.534s.234.07.48.07c.37 0 .643-.054.876-.356a.87.87 0 0 0 .166-.343c.04-.192.055-.657.055-1.2v-6.875h1.218v7.217c0 .904-.068 1.795-.972 2.287m6.088-7.425c-.1-.958-.82-.972-1.602-.972H273v3.547h.8c.532 0 1.082.027 1.34-.56.1-.233.1-.534.1-1.082l-.028-.932zm.698 3.027c-.452.548-1.273.603-1.918.603H273v3.972h-1.205v-9.67h2.506c.944 0 1.328.274 1.63.644.562.684.507 1.492.507 2.287 0 .082.083 1.452-.507 2.164m1.903 4.573v-9.67h4.258v1.082h-3.053v2.876h2.672v1.096h-2.672V28.2h3.15v1.082h-4.356m9.14-7.93c-.246-.7-.987-.644-1.574-.644h-.588v3.383h.628c.535 0 .796-.014 1.055-.1.603-.246.6-1.096.6-1.602 0-.33 0-.712-.1-1.027zm.48 7.93l-1.645-4.246h-.997v4.246h-1.193v-9.67h2.1c.615 0 1.286.027 1.808.452.8.658.753 1.93.753 2.123 0 .4-.028.808-.095 1.205-.095.548-.246.822-.397 1.013-.3.37-.658.452-.8.493l1.725 4.383h-1.26m2.484 0h1.193v-9.67h-1.193v9.67zm6.378-6.985c0-.383.013-.986-.193-1.342-.108-.192-.397-.48-.93-.48-.138 0-.44.014-.713.233-.467.37-.48 1.014-.48 2.137v.67l.013 2.794c0 .7 0 1.1.098 1.4.095.287.326.712 1.04.712.397 0 .78-.178.947-.56.2-.412.203-1.205.218-2.274l.013-1.288-.013-2.013zm1.2 3.725l-.025.862c-.055.698-.166 1.534-.726 2.027-.316.274-.796.507-1.672.507-.274 0-1.3.04-1.876-.78a1.72 1.72 0 0 1-.29-.616c-.15-.535-.15-1.657-.15-3.055l.028-2.616c.028-1.1.178-1.657.52-2.095.3-.384.864-.795 1.96-.795.3 0 1.48.013 1.986 1.07a2.36 2.36 0 0 1 .234.862c.083.685.083 2.246.068 2.917l-.055 1.712m5-4.67c-.246-.7-.984-.644-1.574-.644h-.588v3.383h.63c.535 0 .793-.014 1.055-.1.603-.246.6-1.096.6-1.602 0-.33 0-.712-.113-1.027zm.48 7.93l-1.642-4.246h-1v4.246h-1.193v-9.67h2.1c.618 0 1.288.027 1.808.452.8.658.756 1.93.756 2.123a7.09 7.09 0 0 1-.098 1.205c-.095.548-.246.822-.397 1.013-.3.37-.658.452-.8.493l1.727 4.383h-1.263m-78.96 8.658c-.01-.567-.04-.86-.252-1.073-.254-.233-.688-.213-.992-.213h-.456V42.2h.587c.222 0 .486 0 .7-.1.152-.08.284-.193.355-.537.05-.274.06-1.022.06-1.843l-.01-1.76zm.87 2.693l-.03.8c-.05.567-.223 1.083-.75 1.367-.426.223-.9.193-1.347.193h-1.337v-7.148h1.347c.435 0 .87-.02 1.286.162.67.293.77.93.8 1.154.04.304.05 1.053.05 1.893l-.02 1.6m1.22 2.346v-7.148h3.148v.8h-2.258v2.126h1.975v.8h-1.975V42.2h2.328v.8h-3.218m8.793-7.884l-.9 4.97h1.836l-.946-4.97zM236.4 43l-.343-1.862h-2.246L233.494 43h-1.247l2.082-9.67h1.205L237.67 43h-1.26m5.643-7.94c-.247-.7-.987-.644-1.575-.644h-.6V37.8h.63c.535 0 .794-.014 1.055-.1.602-.246.6-1.095.6-1.602 0-.33 0-.712-.1-1.027zm.48 7.93l-1.644-4.246h-1V43h-1.2v-9.67h2.1c.615 0 1.286.027 1.807.452.808.657.753 1.93.753 2.123a7.03 7.03 0 0 1-.095 1.205c-.097.548-.247.822-.398 1.013-.3.37-.657.452-.807.493L243.793 43h-1.26m4.97-8.597V43h-1.2v-8.587h-1.836V33.32h4.862v1.082h-1.835m3 8.598v-9.67h4.26v1.082h-3.056v2.876h2.672v1.095h-2.672v3.533h3.15V43h-4.355m9.276-.284c-.603.4-1.273.4-1.507.4-.344 0-1.727-.027-2.177-1.328-.123-.356-.153-.712-.153-1.082V39.65h1.137v.48c0 .658 0 .96.1 1.274.095.26.382.698 1.082.698.465 0 .916-.205 1.107-.63.1-.233.1-.48.1-.575 0-.82-.37-1.164-.9-1.712l-1.303-1.342c-.753-.78-1.1-1.3-1.1-2.424 0-.137 0-.52.1-.918.2-.63.726-1.33 2.137-1.33.33 0 1.63.014 1.96 1.26.08.33.08.78.08 1.123v.616h-1.067l-.015-.794c0-.438-.065-.863-.52-1.082-.218-.096-.424-.096-.507-.096-.286 0-.532.07-.726.26-.108.096-.163.22-.2.26-.055.123-.095.328-.095.643a1.72 1.72 0 0 0 .083.562c.148.452.56.822.876 1.164l1.52 1.616.3.37c.234.3.535.808.535 1.725 0 1.15-.467 1.644-.876 1.918m5.292.284v-7.148h3.15v.8h-2.257v2.126h1.974v.8h-1.974V42.2h2.328v.8h-3.22m11.173-6.83c-.015-.767-.055-1.165-.34-1.452-.344-.315-.932-.288-1.343-.288h-.615v7.5h.793c.3 0 .658 0 .96-.15.206-.1.384-.26.48-.726.068-.37.083-1.383.083-2.492l-.015-2.383zm1.178 3.643l-.04 1.068c-.07.767-.3 1.465-1.014 1.85-.575.3-1.218.26-1.82.26h-1.808v-9.67h1.82c.6 0 1.178-.027 1.74.22.904.397 1.04 1.26 1.082 1.56.053.4.068 1.424.068 2.56l-.028 2.15m1.66 3.19v-9.67h4.26v1.082h-3.056v2.876h2.672v1.095h-2.672v3.533h3.15V43h-4.356m9.268-.284c-.603.4-1.273.4-1.507.4-.344 0-1.727-.027-2.177-1.328-.126-.356-.153-.712-.153-1.082V39.65h1.137v.48c0 .658 0 .96.1 1.274.095.26.382.698 1.082.698.465 0 .916-.205 1.1-.63.108-.233.108-.48.108-.575 0-.82-.37-1.164-.904-1.712l-1.3-1.342c-.753-.78-1.1-1.3-1.1-2.424 0-.137 0-.52.1-.918.2-.63.726-1.33 2.137-1.33.33 0 1.63.014 1.96 1.26.083.33.083.78.083 1.123v.616h-1.07l-.013-.794c0-.438-.068-.863-.522-1.082-.218-.096-.424-.096-.505-.096-.3 0-.535.07-.728.26-.108.096-.163.22-.2.26-.055.123-.095.328-.095.643a1.72 1.72 0 0 0 .083.562c.148.452.56.822.876 1.164l1.52 1.616.3.37c.234.3.535.808.535 1.725 0 1.15-.467 1.644-.876 1.918m2.28.284h1.2v-9.67h-1.2V43zm6.603 0v-.67l-.382.356c-.206.15-.698.466-1.384.452-.424 0-1.466-.137-1.835-1.328-.166-.534-.166-1-.178-2.082l-.013-1.534.04-2.054c0-.055 0-.986.15-1.507.437-1.466 1.835-1.452 2.272-1.452.78 0 1.248.178 1.537.37.163.1.26.22.314.287a1.64 1.64 0 0 1 .329.603c.083.288.083.562.083 1.164v.684h-1.14v-.48l-.013-.493c-.013-.397-.068-1.123-1.08-1.123-.126 0-.454 0-.756.206-.123.082-.206.164-.246.22s-.108.192-.15.384c-.095.452-.136 1.492-.136 2.74v1.164l.04 1.63c.028.547.028.794.138 1.04.2.397.547.575.972.575.15 0 .535-.014.876-.315a1.2 1.2 0 0 0 .314-.425c.098-.247.138-.726.138-1.384v-.986h-1.426v-1.04h2.55v5h-1.014m5.55-.002l-1.9-8.382.163 8.382h-1.2v-9.67h1.657l1.96 8.464-.166-8.464h1.165V43h-1.697"></path>
</svg>